<svg width="226" height="228" viewBox="0 0 226 228" fill="none" xmlns="http://www.w3.org/2000/svg">
<path d="M84.9091 10V38.3636M141.091 10V38.3636M84.9091 189.636V218M141.091 189.636V218M187.909 85.6364H216M187.909 132.909H216M10 85.6364H38.0909M10 132.909H38.0909M56.8182 38.3636L169.182 38.3636C179.525 38.3636 187.909 46.8295 187.909 57.2727V170.727C187.909 181.17 179.525 189.636 169.182 189.636H56.8182C46.4754 189.636 38.0909 181.17 38.0909 170.727L38.0909 57.2727C38.0909 46.8295 46.4754 38.3636 56.8182 38.3636ZM84.9091 85.6364L141.091 85.6364V142.364H84.9091L84.9091 85.6364Z" stroke="#00A3FF" stroke-width="10" stroke-linecap="round" stroke-linejoin="round"/>
</svg>
