<svg width="22" height="23" viewBox="0 0 22 23" fill="none" xmlns="http://www.w3.org/2000/svg">
<path d="M20.89 10.9353L11.7 20.1253C10.5742 21.2512 9.04718 21.8837 7.455 21.8837C5.86281 21.8837 4.33584 21.2512 3.21 20.1253C2.08415 18.9995 1.45166 17.4725 1.45166 15.8803C1.45166 14.2881 2.08415 12.7612 3.21 11.6353L12.4 2.44533C13.1506 1.69476 14.1685 1.2731 15.23 1.2731C16.2915 1.2731 17.3094 1.69476 18.06 2.44533C18.8106 3.19589 19.2322 4.21387 19.2322 5.27533C19.2322 6.33678 18.8106 7.35476 18.06 8.10533L8.86 17.2953C8.48472 17.6706 7.97572 17.8814 7.445 17.8814C6.91427 17.8814 6.40528 17.6706 6.03 17.2953C5.65472 16.92 5.44388 16.4111 5.44388 15.8803C5.44388 15.3496 5.65472 14.8406 6.03 14.4653L14.52 5.98533" stroke="#A0A0A0" stroke-width="2" stroke-linecap="round" stroke-linejoin="round"/>
</svg>
