<svg width="36" height="36" viewBox="0 0 36 36" fill="none" xmlns="http://www.w3.org/2000/svg">
<path d="M14.0625 17.4375C14.5101 17.4375 14.9393 17.2597 15.2557 16.9432C15.5722 16.6268 15.75 16.1976 15.75 15.75C15.75 15.3024 15.5722 14.8732 15.2557 14.5568C14.9393 14.2403 14.5101 14.0625 14.0625 14.0625C13.6149 14.0625 13.1857 14.2403 12.8693 14.5568C12.5528 14.8732 12.375 15.3024 12.375 15.75C12.375 16.1976 12.5528 16.6268 12.8693 16.9432C13.1857 17.2597 13.6149 17.4375 14.0625 17.4375ZM13.806 21.7507C13.7079 21.6391 13.5887 21.548 13.4551 21.4827C13.3216 21.4174 13.1765 21.3792 13.0282 21.3704C12.8798 21.3615 12.7312 21.3821 12.5908 21.431C12.4505 21.4799 12.3212 21.5561 12.2105 21.6552C12.0998 21.7543 12.0098 21.8744 11.9458 22.0085C11.8817 22.1426 11.8449 22.2881 11.8374 22.4365C11.8298 22.5849 11.8518 22.7334 11.902 22.8733C11.9522 23.0131 12.0296 23.1417 12.1297 23.2515C12.868 24.0779 13.7726 24.7389 14.7843 25.191C15.796 25.6432 16.8919 25.8763 18 25.875C19.1081 25.8763 20.204 25.6432 21.2157 25.191C22.2274 24.7389 23.132 24.0779 23.8703 23.2515C24.066 23.0287 24.1659 22.7377 24.1482 22.4416C24.1304 22.1456 23.9965 21.8686 23.7756 21.6707C23.5546 21.4729 23.2645 21.3703 22.9683 21.3853C22.6721 21.4003 22.3939 21.5316 22.194 21.7507C21.6669 22.3416 21.0206 22.8141 20.2978 23.1371C19.5749 23.4601 18.7918 23.6264 18 23.625C16.335 23.625 14.8388 22.9028 13.806 21.7507ZM23.625 15.75C23.625 16.1976 23.4472 16.6268 23.1307 16.9432C22.8143 17.2597 22.3851 17.4375 21.9375 17.4375C21.4899 17.4375 21.0607 17.2597 20.7443 16.9432C20.4278 16.6268 20.25 16.1976 20.25 15.75C20.25 15.3024 20.4278 14.8732 20.7443 14.5568C21.0607 14.2403 21.4899 14.0625 21.9375 14.0625C22.3851 14.0625 22.8143 14.2403 23.1307 14.5568C23.4472 14.8732 23.625 15.3024 23.625 15.75ZM31.5 18C31.5 16.2272 31.1508 14.4717 30.4724 12.8338C29.7939 11.1959 28.7995 9.70765 27.5459 8.45406C26.2923 7.20047 24.8041 6.20606 23.1662 5.52763C21.5283 4.84919 19.7728 4.5 18 4.5C16.2272 4.5 14.4717 4.84919 12.8338 5.52763C11.1959 6.20606 9.70765 7.20047 8.45406 8.45406C7.20047 9.70765 6.20606 11.1959 5.52763 12.8338C4.84919 14.4717 4.5 16.2272 4.5 18C4.5 21.5804 5.92232 25.0142 8.45406 27.5459C10.9858 30.0777 14.4196 31.5 18 31.5C21.5804 31.5 25.0142 30.0777 27.5459 27.5459C30.0777 25.0142 31.5 21.5804 31.5 18ZM6.75 18C6.75 15.0163 7.93526 12.1548 10.045 10.045C12.1548 7.93526 15.0163 6.75 18 6.75C20.9837 6.75 23.8452 7.93526 25.955 10.045C28.0647 12.1548 29.25 15.0163 29.25 18C29.25 20.9837 28.0647 23.8452 25.955 25.955C23.8452 28.0647 20.9837 29.25 18 29.25C15.0163 29.25 12.1548 28.0647 10.045 25.955C7.93526 23.8452 6.75 20.9837 6.75 18Z" fill="#A0A0A0"/>
</svg>
