<svg width="16" height="16" viewBox="0 0 16 16" fill="none" xmlns="http://www.w3.org/2000/svg">
<path d="M10.5941 0.674995L10.6724 0.744162L15.2557 5.3275C15.3962 5.46873 15.4815 5.6556 15.496 5.85427C15.5106 6.05294 15.4535 6.25025 15.3351 6.41045C15.2167 6.57065 15.0449 6.68314 14.8507 6.72755C14.6565 6.77195 14.4528 6.74533 14.2766 6.6525L11.6332 9.295L10.4466 12.4592C10.4153 12.5427 10.3709 12.6206 10.3149 12.69L10.2566 12.7567L9.00657 14.0067C8.86297 14.15 8.672 14.2361 8.46948 14.2486C8.26696 14.2612 8.06681 14.1995 7.90657 14.075L7.82741 14.0058L5.4999 11.6792L2.33907 14.8392C2.18911 14.9886 1.98788 15.0754 1.77625 15.0819C1.56463 15.0883 1.35848 15.014 1.19967 14.874C1.04087 14.7339 0.941316 14.5387 0.921238 14.3279C0.90116 14.1172 0.962061 13.9067 1.09157 13.7392L1.16074 13.6608L4.32074 10.5L1.99407 8.1725C1.85059 8.029 1.7644 7.83809 1.75166 7.63557C1.73893 7.43304 1.80053 7.23283 1.9249 7.0725L1.99407 6.99416L3.24407 5.74416C3.30695 5.68106 3.37954 5.62845 3.45907 5.58833L3.54074 5.55333L6.70407 4.36583L9.34657 1.72416C9.25646 1.55569 9.22698 1.36137 9.26307 1.17375C9.29915 0.98613 9.39861 0.816607 9.54478 0.693576C9.69095 0.570545 9.87496 0.501478 10.066 0.497944C10.257 0.494409 10.4434 0.557456 10.5941 0.674995Z" fill="#818181"/>
</svg>
