<svg width="22" height="22" viewBox="0 0 22 22" fill="none" xmlns="http://www.w3.org/2000/svg">
<path fill-rule="evenodd" clip-rule="evenodd" d="M14.9645 13.6575L19.8961 18.5891C20.0695 18.7626 20.1668 18.9978 20.1667 19.243C20.1666 19.4883 20.0691 19.7234 19.8957 19.8968C19.7222 20.0701 19.487 20.1674 19.2418 20.1673C18.9965 20.1673 18.7614 20.0698 18.588 19.8963L13.6564 14.9646C12.1821 16.1065 10.3282 16.6439 8.47182 16.4674C6.61543 16.2909 4.896 15.4138 3.66331 14.0146C2.43062 12.6154 1.77728 10.7991 1.83618 8.9353C1.89509 7.07147 2.66182 5.30009 3.98041 3.98151C5.29899 2.66292 7.07037 1.89619 8.9342 1.83728C10.798 1.77838 12.6143 2.43172 14.0135 3.66441C15.4127 4.8971 16.2898 6.61653 16.4663 8.47292C16.6428 10.3293 16.1054 12.1832 14.9635 13.6575H14.9645ZM9.16653 14.6667C10.6252 14.6667 12.0242 14.0873 13.0556 13.0558C14.0871 12.0244 14.6665 10.6254 14.6665 9.16672C14.6665 7.70803 14.0871 6.30908 13.0556 5.27763C12.0242 4.24618 10.6252 3.66672 9.16653 3.66672C7.70784 3.66672 6.3089 4.24618 5.27745 5.27763C4.246 6.30908 3.66654 7.70803 3.66654 9.16672C3.66654 10.6254 4.246 12.0244 5.27745 13.0558C6.3089 14.0873 7.70784 14.6667 9.16653 14.6667Z" fill="#ABAFB1" fill-opacity="0.6"/>
</svg>
